<svg id="stevnsfort" xmlns="http://www.w3.org/2000/svg" xmlns:xlink="http://www.w3.org/1999/xlink" width="98mm" height="102mm" viewBox="0 0 277.8 289.13"><defs><style>.cls-1{fill:#39728d;}</style><symbol id="New_Symbol_40" data-name="New Symbol 40" viewBox="0 0 90.28 73.73"><path class="cls-1" d="M1.24,16.12,1,16.38H1v0l.25-.2A.56.56,0,0,0,1.24,16.12Z"/><path class="cls-1" d="M89.44,37.92C88,33,84.27,30,76.71,27.59A91.31,91.31,0,0,0,60.8,23.94l-.12,0-.07-.11,0,.09-3.84-.64a120.82,120.82,0,0,1-13.9-3.42,1.55,1.55,0,0,0,0-.53v-.15a.55.55,0,0,1,.28.09.72.72,0,0,0,.52.07l.16,0,0-.24a.66.66,0,0,0-.58-.54c-.13,0-.28-.07-.34-.17v-1l-.26.7a4.08,4.08,0,0,0-.14,1.1,5.79,5.79,0,0,1-.05.61l-.85-.26-.2-.09v0c-2.93-.91-4.89-1.6-4.93-1.62C31.32,16.28,17.76,9,17.63,9,13.12,6.29,9,5.53,5.58,6.67l-.13,0v.06a9.63,9.63,0,0,0-1.84.86C.25,9.6-.71,16.87.5,22.39,1.9,28.83,14.9,39.7,21.08,44v0h.05c.45.31.87.58,1.24.82,11.25,7.09,21.28,9.85,35.78,9.85,14.92,0,29.12-5.12,30.7-6.89S90.73,42.21,89.44,37.92Zm.24,5.93-1.12.29.06-3.48c.4-.08.68-.16.85-.2A13.07,13.07,0,0,1,89.68,43.85Zm-5,1.2-.22-3.74c1.74-.19,3-.41,3.92-.59l-.06,3.49C87.39,44.43,86.15,44.72,84.64,45.05ZM26.45,46.28l-2.73-2.69-.26-3.78c1,.51,2.11,1,3.24,1.52L27.12,45l-.63,1.29Zm-1.22-.69-1.43-.84,0-.6ZM2.08,22.12a38.31,38.31,0,0,0,2.63,3.51l.43,3.26a32.69,32.69,0,0,1-2.46-3.24ZM.59,18.89A21.64,21.64,0,0,1,.7,15.18c.23.27.56.66,1,1.14l-.06,4.5C1.1,19.91.76,19.25.59,18.89ZM.76,14.7a13.93,13.93,0,0,1,1.18-4l-.21,5.15C1.28,15.33,1,15,.76,14.7Zm1.16,6.5L2,16.61c.68.71,1.6,1.59,2.76,2.6l0,5-.27.52a35.6,35.6,0,0,1-2.49-3.44Zm4.63-.52L5,23.67l0-4.22ZM33,27.75c-.93-.34-1.79-.68-2.6-1l-.09-.07L31,16.5c1,.45,1.95.87,2.82,1.21L33,27.6ZM80.47,45.89l-.17-4.27c1.45-.06,2.73-.16,3.84-.28l.22,3.77C83.21,45.36,81.9,45.62,80.47,45.89ZM58.23,53.78l-.78-5.26H58.6l1.75,0,.14,4-2.23,1.31ZM45.28,47.27c1,.21,2,.4,3.06.55l-2.53,4.57Zm-3-1.13-.12-9,.1-.24.12-.07h0l2.44,4.19.1,5.7C44.05,46.56,43.17,46.35,42.3,46.14ZM21.75,38.47l0-.21V35.78L23.21,31l-.05,8.16Zm-3.87-2.22h0L18,31.86l2.58-.76v6.76C19.66,37.32,18.74,36.78,17.88,36.25Zm-3.12-2V32.82l3-.88-.16,4.14C16.6,35.45,15.65,34.83,14.76,34.21ZM8.36,29V22c.91.66,1.91,1.34,3,2.05l.06,7.61c-.84-.69-1.61-1.35-2.31-2L8.36,29ZM7.28,20.76h.86l0,.6Zm16.27,2.92-1.37-.52.52-6.95L24,15.56l-.49,8Zm0,.44-.28,5.59-1.46-1.28.36-4.84C22.62,23.76,23.08,23.94,23.52,24.12ZM45.43,25.3l-.38,5.58v0l-2.81-.58.69-9.45.87,1,1.52,2.26-.15.63Zm15.86,9.17.23,5.73L60.22,40l-.12-5.84Zm9.87,12.84-.3-5.77,1.4.07v5.56Zm-6,.55-.06-6.79c1.17.12,2.29.22,3.38.31l.31,6,0,.13C67.64,47.68,66.42,47.78,65.19,47.86Zm-4.58.21-.37-7.61,1.29.18-.19,7.41Zm1.2-7.4c1,.14,2.06.26,3,.37l.06,6.84c-1.09.07-2.19.13-3.29.16Zm7.91.36-1-.07V36.62c.41.13.8.26,1.18.4l-.22,4Zm-.6,6.5,0-.16-.32-6,1,.07.3,6Zm3.42-5.91q1.86.08,3.51.09l.3,4.89c-1.22.19-2.5.37-3.81.54ZM76,41.27c-1.09,0-2.26,0-3.49-.08V41.1L72.62,38c1.31.52,2.46,1,3.45,1.49Zm.31-1.61c1.4.66,2.43,1.21,3.06,1.56-1,0-2,.05-3.09.05ZM72.26,41.1v.08l-1.42-.08h0l.2-3.67c.45.16.88.33,1.31.5ZM71.06,37l.1-1.9,1.28-.75-.08,3.16ZM70,36.59l-.88-.31.92-.53Zm-1.47-.07v4.42c-1.08-.08-2.2-.19-3.36-.31V35.49C66.31,35.82,67.43,36.17,68.49,36.52Zm-3.36-1.47.23-3.46L68.29,36C67.3,35.69,66.24,35.36,65.13,35.05Zm-.28,5.55c-1-.11-2-.23-3-.37l-.24-5.69,1.95.5,1.34.37ZM58,33.25l2.49-8-.63,8.41C59.15,33.52,58.54,33.37,58,33.25Zm1.85.87L60,40l-.61-.08L57.08,36.7l0-.65.75-2.39C58.44,33.79,59.1,33.94,59.82,34.12ZM45.25,46.82l-.09-5.23,3.33,5.73v.09C47.39,47.25,46.31,47.05,45.25,46.82ZM45,31.34l-.13,2.95-2.72,2,0-5.5Zm5,.94v.06l-1.42.74,0-1Zm6.7,4.59h0l-.08,2.59-1.66-.28Zm-2.1,2.25-1.39-.26.13-4.49,3.11,2.26ZM43,36.58l-.06,0,1.89-1L44.79,37Zm7.07-3.12-.49,4.65-.82-.17-.09-3.27,0-1.13,1.41-.75Zm0,2.45,0,2.32-.26-.06Zm-1.33,5.52V38.37l.77.17-.71,6.79Zm-.45-8.18-3.16,1.68v-.37l3.13-2.26ZM44.87,35.1l-1.58.83,1.59-1.15Zm.29.3,3.2-1.69.07,2.4,0,1.75c-1.1-.24-2.23-.5-3.37-.77Zm4.67,3.2.32.07L50.37,45,49,46.83Zm.63.13,2.55.51.11,2-2.46,3.32Zm2.83.57,1.11.2-1,1.39ZM53,38.8l-2.57-.51,0-5,.08-.72.14-.08.12-.09,2.41,1.75Zm-7.79-4.74.11-2.67c1.06.22,2,.39,2.83.55Zm-3.36,2.66h0v.37l-2.46,6.13-.55-7.32C39.84,36.18,40.84,36.46,41.86,36.72Zm-3-1.25L39,34.3l2.13,1.77C40.34,35.88,39.6,35.68,38.88,35.47ZM43,37l1.81.45.05,2.94-2-3.42Zm2.11.52c1.15.27,2.27.53,3.37.77l0,1.72v6.66l-3.34-5.75Zm4.47,9.09.83-1.12,0,.52Zm.86-.14,0,1.18c-.49,0-1-.11-1.46-.18Zm.26-1.37,2.46-3.33.12,2.2L50.7,45.81Zm2.72-3.68,1.38-1.86,1.93.34V40l.08,1.5-3.26,2.31ZM57,40v0l1.59.26-1.52,1.08Zm0-.45.06-2.25,1.81,2.55ZM57.13,35l0-1.44.39.08Zm-.31,1-.1.35L53.43,33.9l0-1.07c1.1.18,2.15.36,3.43.63ZM53.16,33.7l-1.63-1.18,1,.15.68.12ZM50.1,31.85l-1.35-.24,1.75-6.29ZM45.35,31v0l.35-5.07L47,28.42l1.21,3.08Zm-3.47,5.28L39,33.84l.21-3.59v-.19q1.29.33,2.73.63Zm-3-6.2,0-.06h0Zm0,.16-.19,3.4-1.56-1.3,1.75-2.15Zm-.22,3.87-.07,1.32-2.51-.74.05-1.13.76-.92Zm-8.21,8.36,0-1.89,2.72-3.35.4,6.37C32.47,43.2,31.45,42.82,30.45,42.43Zm-8.72-12.1v-.64l.86.39Zm1.38,0-1.38,4.42v-4Zm-9.72,2.85,1.1-.32V34C14.11,33.75,13.75,33.48,13.39,33.22ZM13,32.9c-.43-.33-.85-.65-1.25-1h0l-.07-7.65c.89.56,1.83,1.13,2.83,1.7v6.49Zm1.79-6.77c1,.56,2,1.14,3.15,1.7l-.14,3.66-3,.88Zm0-.56L15,22.92l3.08,2.71-.12,1.75h0c-1.11-.58-2.17-1.15-3.16-1.71Zm17.69,7.91-2.13-.75V27.57l2.18,5.8Zm.5.61.16,2.59L30.41,40l0-1.24L32.58,34Zm.29.1,1.51.49-1.38,1.68Zm-4.73,7.47,1-8.78.53.19v.2l.08,5.35L28.7,41.73Zm0,.45v0Zm-.15-1.67-.7-8.25,1.55.59Zm1.17-8,.49-4.4v4.58Zm.6,7.88-1.05,1.28,1-2.27ZM30.38,38l-.06-4.75v-.09c.64.23,1.29.46,2,.68Zm-1.11-5.67c-.56-.2-1.1-.41-1.64-.62l-.52-6,.05,0c.88.41,1.77.82,2.72,1.23ZM27,27.46l.36,4.16-.52-.21Zm-.43,3.84c-1-.39-1.94-.78-2.86-1.18L23.6,30l3.17-4.31Zm-4.8-2.4.82.72-.84-.38v-.15Zm-1.11-.17c-.85-.4-1.66-.8-2.44-1.2v-.11l.11-1.55L20.69,28ZM18.18,28c.79.39,1.6.8,2.44,1.19v1.49l-2.56.75Zm8.35,3.76.09,6.06-2.89-7.22C24.63,31,25.56,31.36,26.53,31.74Zm.28.12.56.22.81,9.44-.09,0-1.18-3Zm3.34,9,0,1.45L29.26,42Zm3.26-4,1.69-2.08.71.21.58,9.43v.07c-.88-.27-1.74-.55-2.57-.84Zm2-2.43.45-.55,0,.67Zm.77-1.5,0-.92.42.35Zm-.29.36-.84,1-1.8-.58,0-4.15,2.66,2.21ZM33,33.64l-.2-.06.08-.18-2.29-6.07,2.46,2ZM27.24,25.3l-.17-.07h0l.42-7.45L30,26.53C29,26.12,28.12,25.71,27.24,25.3Zm-3.71,4.26.27-5.33c.95.4,1.85.8,2.76,1.22Zm-2.8-2.06-2.39-2.1.21-2.94.95.27c.54.15,1.06.31,1.55.48Zm-2.65-2.34L15,22.45l.06-.81q1.5.3,3.21.75Zm-3.34-2.94-.92-.82,1,.18Zm0,.46-.21,2.83c-1-.57-2-1.14-2.83-1.71l.16-2.71,1.3.19Zm-6.29-1.9c.76,0,1.82.1,3.14.27l-.16,2.58c-1.1-.7-2.11-1.4-3-2.06ZM8.1,29.25l.22,2.63L5.66,26.72C6.39,27.53,7.2,28.38,8.1,29.25Zm.31.29.55.51c.75.69,1.58,1.41,2.5,2.15l0,.58-2.84-.31Zm3.34,2.9.55.43-.52-.06Zm2.76,2.06Zm9-3.68,3.14,7.83,0,2.21c-1.12-.5-2.2-1-3.23-1.52Zm3.43,8.55.77,1.94L26.94,41Zm1,2.48.32.81,0,.06,0,0-.87,1.78L27,41.46Zm1.07.44,1.21.49.16,1.84-1.7-1.91Zm1.5.6c1,.39,2,.76,3.09,1.13l.28,4.55L30.66,45Zm3.37,1.23c.85.29,1.72.57,2.6.84l.29,2.54-1.88,2.22-.71-.8Zm2.9.93,1.64.49L37,47.2Zm-.06-.46,0-.22-.58-9.27,2.47.72v0l.61,8-.53,1.31Zm2.53-.06.06.71v.11l-.36-.1Zm.35.63-.09-1.26,2.41-6L42,46.07l-2.39-.63ZM50.49,48.1l.82,4-2.14-4.21Zm.27-.4,0-1.43,2.57-1.82.18,3.29,0,.19C52.58,47.88,51.67,47.79,50.76,47.7Zm3,0-.18-3.42,3.25-2.31.34,6.14C56,48.06,54.9,48,53.79,48Zm3.34-5.92,2.05-1.46.83.13.37,7.66c-1,0-1.93,0-2.9,0Zm3.55,6.76.76,0,.5,3.18-1.13.65Zm1,0c1.09,0,2.18-.1,3.25-.17l.29,1.4L62.15,51.5Zm3.54-.19c.94-.06,1.88-.13,2.81-.22l-2.55,1.49Zm6-.56,1.11-.13.21.82L71.3,48.1Zm1.39-.17q2-.26,3.78-.54l.67,2.56-4.2-1.07Zm4-1-.29-4.84h.21c1.25,0,2.41,0,3.48-.08l.17,4.31C79.07,46.15,77.88,46.35,76.62,46.55Zm3.66-5.36.19-11.31a21,21,0,0,1,3.94,2.2l-.3,8.62v.21C83,41,81.73,41.13,80.28,41.19ZM80,41.11c-.49-.29-1.73-1-3.65-1.9L76.5,32l3.69-2.15Zm-3.92-2c-1-.46-2.14-1-3.45-1.49l.1-3.42,3.48-2Zm-3.34-5.39.18-6.36c1,.29,2.13.62,3.37,1l-.07,3.33Zm-.28.17-1.28.74L71.59,27l1,.29ZM70,35.27,68.77,36l.31-9.66,1.4.34Zm-1.53.45L65.4,31l.37-5.38c1,.19,2,.39,3,.62Zm-3.36-5.06-3-4.57L62.19,25l3.3.57Zm0,.55L64.86,35c-.43-.12-.86-.24-1.31-.35l-2-.52.52-7.46ZM61.29,34l-1.19-.3.68-8.93.1,0,.95,1.43Zm-1.08-8.95-2.53,8.1-.5-.11h0l.35-5.91Zm-2.65,1.57.13-2.37,2.4.4ZM56.91,33c-1.28-.26-2.34-.44-3.44-.62v-.14l.11-2.06,3.64-2.81Zm-3.71-.79v.12l-.67-.11L51.23,32l2.07-1.6Zm-2.47-.29-.31-.23,2.09-8.42,1.19.26-.37,6.37Zm-.16-2.06L51.2,23c.34.08.68.17,1,.24Zm0-5.95-2,7,.47-8.49c.51.14,1,.26,1.56.39ZM48.32,31l-1.13-2.86-1.45-3L46,21.64c.9.25,1.84.51,2.8.75Zm-2.79-7.2L44,21.52l-.54-.62,2.26.66Zm-2.88-3.17-.71,9.59q-1.44-.32-2.7-.63l.94-9.73C40.93,20.14,41.75,20.4,42.65,20.67Zm-3.71,8.89c-.93-.23-1.78-.47-2.59-.7l.79-9.95,2.74.9Zm-.32.36-1.76,2.16-.64-.53.1-2.26C37,29.5,37.81,29.71,38.62,29.92ZM36,31.33,33.28,29.1v-.81c.85.31,1.76.61,2.76.92Zm-3-2.46-1.51-1.25L33,28.2Zm-2.91-2.94-2.55-9.06.1-1.92c1,.5,2.05,1,3,1.43ZM27.3,16l-.4-1.45.47.23Zm-.05.91L26.8,25.1c-1-.45-1.95-.88-3-1.31V23.6l.5-8.18,2.14-1,.07,0Zm-2.89-2,.09-1.56,1.56.77Zm-.29.14-1.34.65.23-3.1,1.22.62Zm-2.19-2.95-.31,4.16-2.68,1.29.47-6.8,2.69,1.39Zm-.35,4.63-.45,6c-.49-.16-1-.33-1.53-.48l-1-.27.28-4ZM18.3,22c-1.14-.3-2.21-.55-3.2-.75l.11-1.39,3.36-1.62Zm-3.47-.81c-.57-.11-1.12-.21-1.63-.29l0-.05L14.92,20Zm-2.05-.62-.92-.05.75-12.87a19.32,19.32,0,0,1,3.16,1.27L15,19.49Zm-1.2-.07-3.14-.19L9.23,7a13,13,0,0,1,3.1.5Zm-3.5,1.38v6.88A45.32,45.32,0,0,1,5,25.4v-1l1.83-3.49Zm-3,4.47L8,32c-.9-.92-1.76-1.83-2.54-2.73Zm6.43,6.91.14,2.24c-.91-.83-1.82-1.67-2.69-2.52Zm.28,0,1,.11,1.74,1.72L15,38.3c-1-.82-2-1.68-3-2.58Zm3.09,2.15,3,2.93.34,2.57c-.94-.72-1.93-1.51-3-2.34Zm-.06-.59,0-.1c.89.62,1.82,1.24,2.82,1.86l.16,1.17ZM18,36.76c.84.52,1.73,1,2.67,1.55v0L20.1,40l.25.19.34-1.07.13,1.58-2.7-2.66ZM21.79,39c.45.24.91.48,1.38.71l.25,3.64L22,41.93Zm5.4,6.64.14,1.17-.56-.3Zm.23-.47.9-1.86v0l.12-.27,1.95,2.2.28,3.21c-1-.47-2-1-3.05-1.51Zm3.29.45,3.17,3.58,0,.65c-1-.38-2-.79-3-1.24Zm3.48,3.92.44.51,0,0-.38-.14Zm.91.5,1.7-2,.34,3c-.59-.18-1.17-.38-1.74-.58v0Zm1.95-2.31,1.71-2,.6.17.84,6c-.94-.24-1.86-.5-2.77-.78Zm2.63-1.78,2.36.62.66,5.86c-.74-.15-1.49-.32-2.22-.5h0Zm2.68.69c.85.21,1.72.42,2.61.61l.59,5.7c-.86-.13-1.71-.29-2.55-.46Zm3.47,6,.14.18,2.61-4.7,1.21,5.35c-1.34-.12-2.65-.28-3.92-.47Zm3.05-4.52,2.66,5.24.05.26c-.5,0-1-.07-1.48-.12ZM52,53.44l-.13-.26-1-5c.91.1,1.83.18,2.75.24l.8,5.34c-.85,0-1.69-.07-2.52-.13Zm1.89-5.06c1.1.07,2.21.12,3.32.13v.05l.77,5.22c-1.12,0-2.22,0-3.29-.06Zm6.66,4.55,0,.81-1.47,0Zm.27-.16L62,52.08l.24,1.58-1.38.07Zm1.43-.84,3.09-1.8L66,53.35c-1.17.13-2.37.23-3.58.3l.09,0Zm3.35-2L68.91,48l.75,4.85c-1.11.17-2.25.32-3.41.45Zm3.64-2,1,.24.87,4.39-1.11.18Zm2.19.56,1.29.32.84,3.29-1.35.26ZM73,49l4.2,1.07.32,1.23c-1.17.29-2.41.58-3.71.84Zm4.52,1.15,2.17.56c-.6.17-1.24.35-1.89.51Zm-.12-.47L76.68,47c1.25-.2,2.44-.41,3.56-.61L81,50.3l-.5.16Zm3.13-3.34c1.44-.27,2.75-.54,3.92-.78l.74,3.31c-1.12.44-2.47.93-4,1.4l.1,0ZM89.38,40c-.16,0-.41.11-.75.18l.09-2.59c.08.22.15.44.22.66A17.92,17.92,0,0,1,89.38,40ZM88.46,37l-.11,3.3c-.87.18-2.18.41-4,.6V40.7l.3-8.42A11.5,11.5,0,0,1,88.46,37ZM79.8,29.6l-3.3,1.91.06-3.08h0C77.76,28.81,78.83,29.2,79.8,29.6ZM61.91,25l0,.71-.53-.81Zm-4.5-.75-.15,2.64L53.62,29.7,54,23.62c.92.18,1.82.35,2.71.5ZM36.87,18.82l-.79,10c-1-.3-1.93-.61-2.79-.92v-.23l.75-9.8c.85.34,1.61.61,2.24.79ZM19.09,10.65l-.49,7.08-3.36,1.62L16,9c.46.24.93.49,1.4.76ZM9,7,8.17,20.25l-1.35-.07-.09.16C6.12,19.86,5.55,19.4,5,19L5.68,7.51A10,10,0,0,1,8.84,7ZM3.81,8.38A8.91,8.91,0,0,1,5.4,7.62L4.77,18.73A38.1,38.1,0,0,1,2,16.1l.24-6A4.77,4.77,0,0,1,3.81,8.38ZM1,22.11a21,21,0,0,1-.36-2.38c.23.45.57,1.05,1,1.78L2.28,25A10.54,10.54,0,0,1,1,22.11Zm17.51,19-.33-2.49,2.66,2.64L21,42.94C20.24,42.41,19.41,41.81,18.53,41.14Zm3.66,2.6-.1-1.25,1.38,1.36,0,.72L22.57,44Zm66.33,3.32a10,10,0,0,1-3.07,1.68l-.74-3.27c1.47-.31,2.68-.6,3.57-.82l.5,2.08A4.19,4.19,0,0,1,88.52,47.06Zm.47-.67-.43-1.81,1.07-.27A6,6,0,0,1,89,46.39Z"/><path class="cls-1" d="M39.24,17.83c.07.4-.13.36-.1.71s.11-.78.37-.71c.42.06.24,1.05.64,1.14.18-.19-.08-.91-.09-1.28-.35.1-.44-.18-.73-.15a.76.76,0,0,1,0-.15l4.19,1.24V4.22l-.68-.59L42.53.85,41.94.64A8.09,8.09,0,0,0,40.15,0c-.18.28,0,1.15-.21,1.37l-.16,0v.15c-.39.09-.08,1.29-.18,1.85a1.31,1.31,0,0,0,.18-.62v.62l-.44.29c0-.09,0-.19,0-.29-.5.43-.27,1.53-.27,2.28,0,3.54-.12,7.89-.19,11.56C38.77,17.78,39.18,17.53,39.24,17.83Zm1-16.56h0c0-.12,0-.23,0-.33Z"/><path class="cls-1" d="M64.06,38.62l.13-3.6.8.1-1.2-5L61.48,27.7l-1.32-4.12-2.72-.93-.66,3.4.26,7,.8.21-.4,5.56.47,2.78,1.58-1,.73,1.75-.66,3.51-1.33,1.41v.15L47.1,58.19,45.81,56l3.74-8.38-1.43-.1-3.75,7.54-8-1.7-.78-3.13-.38.22-1.23-.4,1.13,3.62-4,2.29-.23,0L29.27,41.57l-1.1.3L30,57.72l3.49,4.69L39,69.78l.09-.17.08.34.52-.32.47.46,1.89-4.75,1.33,6.57,2.37-5.34,1.11,2.49.56-.6,1.64,2.72,3.79-5.92,2.93,0L52.57,71l.84,1.15L62,57.09l.12.3.9-2.07v0l.45-.79-.36-.5.44-7L64,44.4l.27-1.76L65,40.79l.19-2ZM58.53,54l-.82,1.27-.81-1.18,1.2-1.92v0ZM54,58.69l.75-1.19.59,1.44,0,.07Zm1.06.7-.65,1-.73-1.21.08-.13Zm-.57-4.12.12,0-.08.13Zm.66,1.59,1.33-2.13.8,1.18-1.54,2.4Zm3-7.37v.11L56,53.13H54.42ZM55.41,54l-.4.64-.65.25L54,54Zm-2,.13.4,1L51.48,56Zm-2.67,2.6L54,55.49l.21.5-1.47,2.35-.1,0-2.8-.7Zm1.46,2.41-1.4,2.24-1.59-2.61Zm-3.69-.26L50.4,62l-.54.84h-.18l.09-.13-1.9-3.22Zm-3.66-2h0l1.31,2.2-1.61,1.57L43.8,59Zm-1.25-.27-.72,1.45-4-.73-1.35-2Zm-8-1.42.4,1.62-2.44-.44Zm-1.41,5.86-2.43-3.26,4.69.85.74,3-2.84-.38Zm1.63,2.16,1.82.24.78,3.18Zm1.88-4.34.65.12,2.08,3.08-2-.26Zm2.17,8.77-1-4,2.47.32Zm2.33-5.34-2-3,2.62.48.79,1.77-.84.81ZM43.8,68,43,64.2l1.81.24.27.6Zm1.66-5.24-.3-.66,1.74-1.68,1.43,2.42H46.1Zm3.66,5.91-2.47-4.09,5.11,0Zm3.76-5.85H51.67l-.12-.19,1.77-2.83L54,61Zm.57,1.57,1.36-2.12,1.28,2.14ZM56.58,64,55.2,61.66l1.19-1.85,2.53,0Zm.36-5,1.19-1.84L59.41,59Zm2.84-.62-1.26-1.84.79-1.22,1.8-.18.22.52Z"/><polygon class="cls-1" points="30.22 26.98 37.69 22.6 41.23 24.3 45.54 24.79 45.73 23.19 42.56 19.79 39.78 18.86 39.66 20.69 37.71 20.44 37.3 22.36 30.13 26.57 30.22 26.98"/><rect class="cls-1" x="35.23" y="68.97" width="22.77" height="4.76"/></symbol></defs><title>Artboard 9</title><use width="90.28" height="73.73" transform="translate(25.22 59.23) scale(2.45)" xlink:href="#New_Symbol_40"/></svg>
