<svg id="Layer_1" data-name="Layer 1" xmlns="http://www.w3.org/2000/svg" width="102.85mm" height="43.23mm" viewBox="0 0 291.55 122.54"><defs><style>.cls-1{fill:#bfc1bf;}.cls-2{fill:#231f20;}</style></defs><title>book_knap</title><rect class="cls-1" width="291.55" height="122.54" rx="14"/><path class="cls-2" d="M38.13,43.62a42.91,42.91,0,0,1,8.11-.71c4.43,0,7.29.76,9.43,2.5a7.18,7.18,0,0,1,2.86,6.06c0,3.32-2.2,6.23-5.82,7.55v.1c3.27.82,7.09,3.52,7.09,8.62a9.27,9.27,0,0,1-2.91,6.89C54.5,76.82,50.62,77.84,45,77.84a50.7,50.7,0,0,1-6.88-.41ZM42.57,57.7h4c4.7,0,7.45-2.45,7.45-5.77,0-4-3.06-5.61-7.55-5.61a19,19,0,0,0-3.92.31Zm0,16.47a24.08,24.08,0,0,0,3.72.2c4.59,0,8.82-1.68,8.82-6.68,0-4.69-4-6.63-8.87-6.63H42.57Z"/><path class="cls-2" d="M95.14,60c0,11.83-7.19,18.1-16,18.1-9.08,0-15.45-7-15.45-17.44,0-10.91,6.78-18,16-18C89.08,42.6,95.14,49.79,95.14,60Zm-26.67.56c0,7.35,4,13.92,11,13.92s11-6.47,11-14.27c0-6.84-3.57-14-11-14S68.47,53,68.47,60.55Z"/><path class="cls-2" d="M130.28,60c0,11.83-7.19,18.1-16,18.1-9.08,0-15.45-7-15.45-17.44,0-10.91,6.78-18,16-18C124.21,42.6,130.28,49.79,130.28,60Zm-26.67.56c0,7.35,4,13.92,11,13.92s11-6.47,11-14.27c0-6.84-3.57-14-11-14S103.61,53,103.61,60.55Z"/><path class="cls-2" d="M136.05,43.16h4.43V59.74h.16c.92-1.33,1.83-2.55,2.7-3.68l10.51-12.9h5.5L146.91,57.75l13.41,19.78h-5.25L143.75,60.65l-3.27,3.78v13.1h-4.43Z"/><path class="cls-2" d="M178.94,43.16V57.54h16.62V43.16h4.49V77.53h-4.49V61.42H178.94V77.53H174.5V43.16Z"/><path class="cls-2" d="M225.55,61.42H212.19V73.81h14.89v3.72H207.75V43.16h18.56v3.73H212.19V57.75h13.36Z"/><path class="cls-2" d="M232.85,43.62a46,46,0,0,1,8.51-.71c4.74,0,7.8.86,9.95,2.8a8.58,8.58,0,0,1,2.7,6.53A9,9,0,0,1,247.53,61v.15c2.65.92,4.23,3.37,5.05,6.94,1.12,4.79,1.94,8.11,2.65,9.43h-4.59c-.56-1-1.32-3.92-2.29-8.21-1-4.74-2.86-6.52-6.89-6.68h-4.18V77.53h-4.43Zm4.43,15.66h4.54c4.74,0,7.75-2.6,7.75-6.53,0-4.44-3.21-6.37-7.9-6.43a18.47,18.47,0,0,0-4.39.41Z"/></svg>
